<?xml version="1.0" encoding="utf-8"?>
<!-- Svg Vector Icons : http://www.onlinewebfonts.com/icon -->
<!DOCTYPE svg PUBLIC "-//W3C//DTD SVG 1.1//EN" "http://www.w3.org/Graphics/SVG/1.1/DTD/svg11.dtd">
<svg version="1.1" xmlns="http://www.w3.org/2000/svg" xmlns:xlink="http://www.w3.org/1999/xlink" x="0px" y="0px" viewBox="0 0 1000 1000" enable-background="new 0 0 1000 1000" xml:space="preserve">
<metadata> Svg Vector Icons : http://www.onlinewebfonts.com/icon </metadata>
<g><g transform="translate(0.000000,512.000000) scale(0.100000,-0.100000)"><path d="M1768.8,4992.4c-262.3-80.4-448-304.4-444.2-534.2c0-42.1,19.2-206.8,42.1-365.7l42.1-287.2l3591.8-5.7l3589.9-3.8l49.8,354.2c55.5,405.9,49.8,478.7-49.8,608.8c-32.5,44-101.5,109.1-153.2,141.7c-189.5,128.3,36.4,120.6-3436.7,118.7C2450.4,5019.2,1833.9,5013.5,1768.8,4992.4z"/><path d="M1504.6,3141c3.8-24.9,199.1-1378.5,430.8-3011.7C2167-1502,2362.3-2861.3,2368-2892l11.5-51.7h2621.1h2621.1l9.6,44c3.8,23,199.1,1378.5,430.8,3009.8c231.7,1633.2,427,2990.6,432.7,3021.3l11.5,51.7H5000.6H1495L1504.6,3141z M5257.2,1929c444.2-93.8,813.7-451.9,928.6-901.8C6293,611.8,6170.5,181,5860.3-131.1C5316.6-678.7,4416.7-588.7,3985.9,54.6C3572.3,673,3802.1,1509.7,4476,1835.2C4719.2,1953.9,4989.1,1984.6,5257.2,1929z"/><path d="M2471.4-3598.5c0-91.9,93.8-660.5,120.6-735.2c72.8-203,162.7-319.7,308.3-396.3l78.5-42.1l1970.1-5.7c2140.6-5.7,2085-7.7,2228.6,99.6c172.3,126.3,239.3,294.8,308.3,763.9l53.6,358h-2535h-2533V-3598.5z"/></g></g>
</svg>