<?xml version="1.0" encoding="utf-8"?>
<!-- Svg Vector Icons : http://www.onlinewebfonts.com/icon -->
<!DOCTYPE svg PUBLIC "-//W3C//DTD SVG 1.1//EN" "http://www.w3.org/Graphics/SVG/1.1/DTD/svg11.dtd">
<svg version="1.1" xmlns="http://www.w3.org/2000/svg" xmlns:xlink="http://www.w3.org/1999/xlink" x="0px" y="0px" viewBox="0 0 1000 1000" enable-background="new 0 0 1000 1000" xml:space="preserve">
<metadata> Svg Vector Icons : http://www.onlinewebfonts.com/icon </metadata>
<g><path d="M876.9,460h-75.4c-12.5,0-25.3-0.3-37.7,0.8V460H540.1c39.8-20.3,77.5-60.5,28.9-136.6c-83.3-130.5-175.1-122.9-43.4-311c0,0-105.4,67.7-130.3,155.5C362.9,282,581.3,332.7,569,401.1c-5.2,29.1-21.1,47.4-37.9,58.9H322.9c39.8-20.3,77.5-60.5,28.9-136.6c-83.3-130.5-175.1-122.9-43.4-311c0,0-105.4,67.7-130.3,155.5c-32.4,114.2,186,164.9,173.7,233.2c-5.2,29.1-21.1,47.4-37.9,58.9H10v226.2c0,166.5,135,301.5,301.5,301.5h150.8c143.8,0,264.1-100.7,294.3-235.5c13.8,6,29,9.3,45,9.3h75.4c62.5,0,113.1-50.6,113.1-113.1V573C990,510.6,939.4,460,876.9,460z M688.5,686.1c0,124.9-101.3,226.2-226.2,226.2H311.5C186.6,912.3,85.4,811,85.4,686.1V535.3h603.1L688.5,686.1L688.5,686.1z M914.6,648.4c0,20.8-16.9,37.7-37.7,37.7H763.8V535.3h113.1c20.8,0,37.7,16.9,37.7,37.7V648.4z"/></g>
</svg>