<?xml version="1.0" encoding="utf-8"?>
<!-- Svg Vector Icons : http://www.onlinewebfonts.com/icon -->
<!DOCTYPE svg PUBLIC "-//W3C//DTD SVG 1.1//EN" "http://www.w3.org/Graphics/SVG/1.1/DTD/svg11.dtd">
<svg version="1.1" xmlns="http://www.w3.org/2000/svg" xmlns:xlink="http://www.w3.org/1999/xlink" x="0px" y="0px" viewBox="0 0 1000 1000" enable-background="new 0 0 1000 1000" xml:space="preserve">
<metadata> Svg Vector Icons : http://www.onlinewebfonts.com/icon </metadata>
<g><path d="M800.9,707c-52.1,0-94.3,42.2-94.3,94.3c0,52.1,42.2,94.3,94.3,94.3c52,0,94.3-42.2,94.3-94.3C895.2,749.2,852.9,707,800.9,707z M800.9,844.5c-23.8,0-43.2-19.3-43.2-43.2c0-23.8,19.3-43.2,43.2-43.2c23.9,0,43.2,19.3,43.2,43.2C844,825.2,824.7,844.5,800.9,844.5z M389.9,707c-52.1,0-94.3,42.2-94.3,94.3c0,52.1,42.2,94.3,94.3,94.3c52.1,0,94.3-42.2,94.3-94.3C484.2,749.2,442,707,389.9,707z M389.9,844.5c-23.8,0-43.2-19.3-43.2-43.2c0-23.8,19.3-43.2,43.2-43.2c23.9,0,43.2,19.3,43.2,43.2C433.1,825.2,413.7,844.5,389.9,844.5z M958.4,231.7H357.7c-17.5,0-31.6,14.1-31.6,31.6c0,17.4,14.1,31.6,31.6,31.6h547.1l-83.7,163H452.6c-17.5,0-31.6,14.1-31.6,31.6c0,17.4,14.1,31.6,31.6,31.6h379.4c1.5,0,3-0.1,4.5-0.4c14.1,1.9,27.6-5.2,32.2-17.9l111-216.2c6.3-5.8,10.3-14.1,10.3-23.3C990,245.9,975.8,231.7,958.4,231.7z M895.2,611.1H377.1l-142-488.2c-3.1-13.5-19.1-21.2-35.9-17.6H41.6c-17.5,0-31.6,14.1-31.6,31.6c0,17.4,14.1,31.6,31.6,31.6h141l140.6,483.3c1.8,7.9,8.1,13.8,16.3,16.6c5.2,3.7,11.5,5.9,18.3,5.9h537.4c17.4,0,31.6-14.2,31.6-31.6C926.8,625.2,912.6,611.1,895.2,611.1z"/></g>
</svg>